<svg width="24" height="24" viewBox="0 0 24 24" fill="none" xmlns="http://www.w3.org/2000/svg">
<path d="M23 10.9167C23.004 12.4565 22.6442 13.9755 21.95 15.35C21.1268 16.997 19.8613 18.3824 18.2953 19.3508C16.7293 20.3193 14.9246 20.8326 13.0833 20.8333C11.5435 20.8374 10.0245 20.4776 8.64999 19.7833L2 22L4.21666 15.35C3.52242 13.9755 3.16265 12.4565 3.16666 10.9167C3.16738 9.0754 3.68071 7.27068 4.64917 5.70467C5.61762 4.13865 7.00296 2.87319 8.64999 2.05003C10.0245 1.35579 11.5435 0.996018 13.0833 1.00003H13.6666C16.0984 1.13419 18.3952 2.16059 20.1173 3.8827C21.8394 5.60481 22.8658 7.90162 23 10.3334V10.9167Z" stroke="#D999FF" stroke-width="2" stroke-linecap="round" stroke-linejoin="round"/>
<path d="M10.5714 8H8V14H11" stroke="#A100FF" stroke-width="2" stroke-linecap="round" stroke-linejoin="round"/>
<path d="M14 14V8L18 14V8" stroke="#A100FF" stroke-width="2" stroke-linecap="round" stroke-linejoin="round"/>
<path d="M8 11H10" stroke="#A100FF" stroke-width="2" stroke-linecap="round" stroke-linejoin="round"/>
</svg>
