<svg width="73" height="41" viewBox="0 0 73 41" fill="none" xmlns="http://www.w3.org/2000/svg">
<g clip-path="url(#clip0_755_6)">
<path d="M0.617824 7.72138H6.3632L9.76485 14.9912L13.2479 7.72138H18.8794L12.8899 18.1115L19.4326 30.364H13.6873L9.69975 21.7219L5.77727 30.364H0.113281L6.52595 18.3402L0.617824 7.72138ZM34.882 25.3649C34.882 26.0185 34.9689 26.4922 35.1424 26.7863C35.3269 27.0804 35.6198 27.3036 36.0213 27.456L34.9634 30.8541C33.9435 30.7561 33.0808 30.5328 32.3755 30.1843C31.6811 29.8249 31.1331 29.2857 30.7316 28.567C30.0699 29.362 29.2235 29.9556 28.1926 30.3476C27.1618 30.7288 26.1093 30.9194 25.0351 30.9194C23.2556 30.9194 21.8342 30.413 20.7709 29.4002C19.7183 28.3763 19.1922 27.064 19.1922 25.463C19.1922 23.5788 19.9246 22.1249 21.3893 21.101C22.8651 20.0773 24.9376 19.5654 27.6067 19.5654H29.9341V18.912C29.9341 17.1367 28.7949 16.2491 26.5163 16.2491C25.9629 16.2491 25.2522 16.3308 24.3842 16.4942C23.516 16.6466 22.648 16.8699 21.78 17.164L20.5918 13.7333C21.7094 13.3085 22.8705 12.9872 24.0749 12.7694C25.2902 12.5516 26.3752 12.4427 27.33 12.4427C29.9017 12.4427 31.8005 12.9709 33.0267 14.0273C34.2636 15.0729 34.882 16.5867 34.882 18.5689V25.3649ZM26.8092 27.2273C27.3626 27.2273 27.943 27.064 28.5508 26.7373C29.1584 26.3996 29.6195 25.9259 29.9341 25.3159V22.506H28.6646C27.2324 22.506 26.18 22.7294 25.5071 23.1758C24.8344 23.6115 24.498 24.254 24.498 25.1036C24.498 25.7679 24.6988 26.2907 25.1003 26.6719C25.5126 27.0422 26.0822 27.2273 26.8092 27.2273ZM50.608 5.56494L52.4797 8.84861C51.8614 9.26248 51.2646 9.61099 50.6894 9.89416C50.1144 10.1773 49.5013 10.4333 48.8502 10.662C48.1993 10.8798 47.4506 11.1194 46.6042 11.3808C45.7145 11.664 44.9874 12.0016 44.4232 12.3937C43.8698 12.7748 43.4467 13.2813 43.1537 13.913C42.8607 14.5447 42.66 15.3724 42.5515 16.3961C43.7993 14.7951 45.4649 13.9947 47.5482 13.9947C48.7961 13.9947 49.919 14.3268 50.9173 14.9912C51.9155 15.6447 52.7076 16.5976 53.2936 17.8501C53.8795 19.0917 54.1725 20.5946 54.1725 22.3591C54.1725 24.2323 53.8144 25.806 53.0983 27.0804C52.3822 28.3546 51.4002 29.3129 50.1523 29.9556C48.9046 30.5982 47.4777 30.9194 45.8718 30.9194C43.2026 30.9194 41.1464 30.0917 39.7032 28.4362C38.2602 26.7808 37.5386 24.1614 37.5386 20.5783C37.5386 18.1823 37.7339 16.162 38.1244 14.5174C38.5151 12.8729 39.2096 11.5387 40.2077 10.5149C41.217 9.48029 42.6437 8.6907 44.4884 8.14614C45.3997 7.87386 46.1756 7.61791 46.8158 7.37831C47.4559 7.13871 48.069 6.87732 48.655 6.59415C49.2409 6.31098 49.8919 5.96791 50.608 5.56494ZM42.6817 21.8036C42.6817 23.5898 42.9367 24.9402 43.4467 25.855C43.9675 26.77 44.7759 27.2273 45.8718 27.2273C46.4794 27.2273 47.022 27.0912 47.4993 26.819C47.9877 26.5466 48.3728 26.0674 48.655 25.3813C48.9479 24.6842 49.0944 23.6986 49.0944 22.4243C49.0944 20.6708 48.834 19.4401 48.3131 18.7323C47.7923 18.0135 47.0273 17.6541 46.0183 17.6541C45.2478 17.6541 44.5861 17.8719 44.0327 18.3075C43.4901 18.7432 43.0399 19.2169 42.6817 19.7289V21.8036ZM66.0086 12.4427C68.2654 12.4427 69.8822 13.2704 70.8588 14.9258C71.8353 16.5813 72.3235 18.8194 72.3235 21.6402C72.3235 23.4263 72.0631 25.0218 71.5423 26.4268C71.0215 27.8209 70.2675 28.9209 69.28 29.7268C68.2927 30.5219 67.0936 30.9194 65.6831 30.9194C64.0012 30.9194 62.634 30.3149 61.5816 29.1061V37.062L56.4383 37.6011V13.0145H60.9956L61.2235 14.9585C61.9287 14.0546 62.6992 13.412 63.5346 13.0308C64.3702 12.6387 65.1948 12.4427 66.0086 12.4427ZM64.4136 16.2491C63.8168 16.2491 63.2905 16.4288 62.8348 16.7882C62.3791 17.1476 61.9613 17.6377 61.5816 18.2585V25.5773C61.9396 26.1111 62.314 26.5031 62.7045 26.7536C63.106 27.0041 63.578 27.1293 64.1206 27.1293C65.032 27.1293 65.7427 26.7154 66.2527 25.8877C66.7626 25.0492 67.0177 23.655 67.0177 21.7055C67.0177 20.268 66.9147 19.1571 66.7084 18.3729C66.5022 17.5778 66.2039 17.0278 65.8132 16.7229C65.4226 16.407 64.956 16.2491 64.4136 16.2491Z" fill="white"/>
</g>
<defs>
<clipPath id="clip0_755_6">
<rect width="73" height="31" fill="white" transform="translate(0 5)"/>
</clipPath>
</defs>
</svg>
