<svg width="73" height="42" viewBox="0 0 73 42" fill="none" xmlns="http://www.w3.org/2000/svg">
<path d="M45.75 3.5H28.25C23.4175 3.5 19.5 7.41751 19.5 12.25V29.75C19.5 34.5825 23.4175 38.5 28.25 38.5H45.75C50.5825 38.5 54.5 34.5825 54.5 29.75V12.25C54.5 7.41751 50.5825 3.5 45.75 3.5Z" stroke="white" stroke-width="3.5" stroke-linecap="round" stroke-linejoin="round"/>
<path d="M43.9985 19.8975C44.2145 21.354 43.9657 22.8414 43.2876 24.1483C42.6095 25.4552 41.5365 26.515 40.2214 27.177C38.9062 27.8389 37.4158 28.0693 35.9621 27.8354C34.5085 27.6015 33.1656 26.9152 32.1245 25.8741C31.0834 24.833 30.397 23.4901 30.1631 22.0364C29.9292 20.5828 30.1596 19.0924 30.8216 17.7772C31.4835 16.462 32.5433 15.3891 33.8502 14.711C35.1571 14.0328 36.6446 13.7841 38.101 14C39.5866 14.2203 40.962 14.9126 42.024 15.9746C43.0859 17.0366 43.7782 18.4119 43.9985 19.8975Z" stroke="white" stroke-width="3.5" stroke-linecap="round" stroke-linejoin="round"/>
<path d="M46.625 11.375H46.6425" stroke="white" stroke-width="3.5" stroke-linecap="round" stroke-linejoin="round"/>
</svg>
