<svg width="128" height="33" viewBox="0 0 128 33" fill="none" xmlns="http://www.w3.org/2000/svg">
<g clip-path="url(#clip0_676_810)">
<path d="M74.5898 9.2093L81.9624 6.52326L74.5898 3.76047V0L87.2173 4.98837V8.05814L74.5898 13.0465V9.2093Z" fill="#A100FF"/>
<path d="M4.86274 32.9999C2.19608 32.9999 0 31.6953 0 28.779V28.6255C0 25.0953 3.13725 23.8674 6.98039 23.8674H8.78431V23.1767C8.78431 21.7185 8.15686 20.8743 6.58823 20.8743C5.17647 20.8743 4.47059 21.6418 4.39216 22.7162H0.470588C0.784314 19.4929 3.37255 17.9581 6.82353 17.9581C10.3529 17.9581 12.9412 19.4162 12.9412 23.0232V32.6929H8.94118V31.0046C8.15686 32.079 6.82353 32.9999 4.86274 32.9999ZM8.78431 27.9348V26.5534H7.13726C5.09804 26.5534 4.07843 27.0906 4.07843 28.3953V28.5488C4.07843 29.5464 4.70588 30.2371 6.11765 30.2371C7.52941 30.1604 8.78431 29.3929 8.78431 27.9348ZM22.2745 32.9999C18.1961 32.9999 15.2157 30.5441 15.2157 25.6325V25.4022C15.2157 20.4906 18.3529 17.8813 22.2745 17.8813C25.6471 17.8813 28.3922 19.5697 28.7059 23.3302H24.7843C24.549 21.9488 23.7647 21.0278 22.3529 21.0278C20.6275 21.0278 19.3725 22.4092 19.3725 25.2488V25.7092C19.3725 28.6255 20.4706 29.9302 22.3529 29.9302C23.7647 29.9302 24.7843 28.9325 25.0196 27.3209H28.7843C28.549 30.6976 26.2745 32.9999 22.2745 32.9999ZM37.6471 32.9999C33.5686 32.9999 30.5882 30.5441 30.5882 25.6325V25.4022C30.5882 20.4906 33.7255 17.8813 37.6471 17.8813C41.0196 17.8813 43.7647 19.5697 44.0784 23.3302H40.1569C39.9216 21.9488 39.1373 21.0278 37.7255 21.0278C36 21.0278 34.7451 22.4092 34.7451 25.2488V25.7092C34.7451 28.6255 35.8431 29.9302 37.7255 29.9302C39.1373 29.9302 40.1569 28.9325 40.3922 27.3209H44.1569C43.9216 30.6976 41.6471 32.9999 37.6471 32.9999ZM53.098 32.9999C48.8627 32.9999 45.9608 30.5441 45.9608 25.7092V25.4022C45.9608 20.5674 49.0196 17.8813 53.0196 17.8813C56.7059 17.8813 59.7647 19.8767 59.7647 24.7116V26.4767H50.1176C50.2745 29.086 51.451 30.0836 53.1765 30.0836C54.7451 30.0836 55.6078 29.2395 55.9216 28.2418H59.7647C59.2941 30.9278 56.9412 32.9999 53.098 32.9999ZM50.1961 23.7906H55.6863C55.6078 21.6418 54.5882 20.7209 52.9412 20.7209C51.6863 20.7976 50.5098 21.4883 50.1961 23.7906ZM62.2745 18.265H66.4314V20.4139C67.1373 19.0325 68.6275 17.9581 70.902 17.9581C73.5686 17.9581 75.3726 19.5697 75.3726 23.0232V32.6929H71.2157V23.6371C71.2157 21.9488 70.5098 21.1813 69.0196 21.1813C67.6078 21.1813 66.4314 22.0255 66.4314 23.8674V32.6929H62.2745V18.265ZM82.9804 13.8906V18.265H85.8039V21.2581H82.9804V28.0883C82.9804 29.1627 83.451 29.6999 84.4706 29.6999C85.098 29.6999 85.4902 29.6232 85.8824 29.4697V32.6162C85.4118 32.7697 84.549 32.9232 83.5294 32.9232C80.3137 32.9232 78.8235 31.465 78.8235 28.5488V21.2581H77.098V18.265H78.8235V15.579L82.9804 13.8906ZM101.333 32.6929H97.2549V30.5441C96.549 31.9255 95.1373 32.9999 92.9412 32.9999C90.2745 32.9999 88.3137 31.3883 88.3137 28.0116V18.265H92.4706V27.4743C92.4706 29.1627 93.1765 29.9302 94.5882 29.9302C96 29.9302 97.1765 29.0092 97.1765 27.2441V18.265H101.333V32.6929ZM104.392 18.265H108.549V20.9511C109.412 19.0325 110.824 18.1116 113.02 18.1116V22.1023C110.196 22.1023 108.549 22.9464 108.549 25.3255V32.7697H104.392V18.265ZM121.412 32.9999C117.176 32.9999 114.275 30.5441 114.275 25.7092V25.4022C114.275 20.5674 117.333 17.8813 121.333 17.8813C125.02 17.8813 128.078 19.8767 128.078 24.7116V26.4767H118.51C118.667 29.086 119.843 30.0836 121.569 30.0836C123.137 30.0836 124 29.2395 124.314 28.2418H128.157C127.529 30.9278 125.255 32.9999 121.412 32.9999ZM118.431 23.7906H124C123.922 21.6418 122.902 20.7209 121.255 20.7209C120 20.7976 118.824 21.4883 118.431 23.7906Z" fill="#333333"/>
</g>
<defs>
<clipPath id="clip0_676_810">
<rect width="128" height="33" fill="white"/>
</clipPath>
</defs>
</svg>
