<svg width="24" height="24" viewBox="0 0 24 24" fill="none" xmlns="http://www.w3.org/2000/svg">
<path d="M14.5 12.0001C15.1667 11.4562 16.44 10.781 18.2 11.042C19.96 11.3031 21.4667 12.4562 22 13.0001" stroke="#D999FF" stroke-width="2" stroke-linecap="round" stroke-linejoin="round"/>
<path d="M17.1852 21L15.5185 19.1652C14.8395 19.6545 12.8148 20.5963 10.1481 20.4496C7.48148 20.3028 3.60494 18.4313 2 17.5139C2.80247 12.8045 5.48148 3.16561 9.77778 2.2849C14.0741 1.40418 15.3951 2.77418 15.5185 3.56927C15.0864 4.67015 13.963 6.87193 12.9259 6.87193C11.8889 6.87193 11.1358 5.5264 10.8889 4.85364C10.4568 4.85364 9.55556 5.1839 9.40741 6.50497C9.25926 7.82604 9.09877 10.8474 9.03704 12.1929C10.0864 10.9697 13 9.66085 16.2593 14.2112C20.3333 19.8991 21.0741 20.2661 22 20.4496" stroke="#A100FF" stroke-width="2" stroke-linecap="round" stroke-linejoin="round"/>
<path d="M9 16C9.37333 16.4037 10.312 17.1627 11.08 16.9689C11.848 16.7751 12.68 16.2422 13 16" stroke="#D999FF" stroke-width="2" stroke-linecap="round" stroke-linejoin="round"/>
</svg>
