<svg width="73" height="42" viewBox="0 0 73 42" fill="none" xmlns="http://www.w3.org/2000/svg">
<path fill-rule="evenodd" clip-rule="evenodd" d="M16.6703 18.8013C27.1371 14.2996 34.105 11.3083 37.6039 9.85712C47.5624 5.74042 49.6557 5.02962 51.0015 5C51.3005 5 51.9585 5.05923 52.407 5.41463C52.7659 5.7108 52.8556 6.09582 52.9154 6.39198C52.9752 6.68815 53.035 7.3101 52.9752 7.78396C52.4369 13.4111 50.1043 27.0644 48.9081 33.3431C48.3997 36.0086 47.4129 36.8971 46.4559 36.9859C44.3625 37.1636 42.7775 35.6236 40.7739 34.3204C37.6039 32.2769 35.8395 31.0034 32.7593 28.9894C29.2006 26.6794 31.5033 25.4058 33.5368 23.3327C34.0751 22.7996 43.256 14.5069 43.4355 13.7665C43.4654 13.6777 43.4654 13.3223 43.256 13.1446C43.0467 12.9669 42.7476 13.0261 42.5084 13.0853C42.1794 13.1446 37.1554 16.4616 27.3764 23.0069C25.9409 23.9842 24.655 24.4581 23.4887 24.4285C22.2027 24.3989 19.7505 23.7177 17.8964 23.1254C15.6535 22.4146 13.8592 22.0295 14.0087 20.7856C14.0984 20.1341 14.9956 19.4825 16.6703 18.8013Z" fill="white"/>
</svg>
