<svg width="73" height="41" viewBox="0 0 73 41" fill="none" xmlns="http://www.w3.org/2000/svg">
<path d="M56.174 26.9355C55.2596 25.8379 54.2204 24.8541 53.2154 23.9026C52.8581 23.5642 52.4886 23.2144 52.1324 22.8665C51.1099 21.8668 51.0726 21.4912 51.8822 20.3556C52.4423 19.5728 53.0362 18.789 53.6105 18.031C54.1315 17.3432 54.6702 16.632 55.1865 15.9185L55.2925 15.7718C56.2793 14.4063 57.2999 12.9944 57.843 11.2912C57.9841 10.8418 58.1321 10.1806 57.7935 9.62762C57.4552 9.07514 56.7987 8.90659 56.3343 8.82786C56.1046 8.7889 55.8765 8.78358 55.6649 8.78358L49.2023 8.77896L49.1489 8.77849C48.1718 8.77849 47.5133 9.23896 47.136 10.1864C46.7758 11.0916 46.38 12.0555 45.9285 12.972C45.0299 14.7971 43.8886 16.8992 42.2372 18.6523L42.1673 18.7269C41.9723 18.9365 41.7514 19.1738 41.5899 19.1738C41.5651 19.1738 41.5382 19.1691 41.5077 19.1595C41.1656 19.0262 40.936 18.1981 40.9464 17.8129C40.9465 17.8076 40.9466 17.8023 40.9466 17.797L40.9421 10.3276C40.9421 10.3017 40.9403 10.2761 40.9369 10.2504C40.7725 9.03618 40.4084 8.28035 39.0324 8.01087C38.9959 8.00358 38.9586 8 38.9213 8H32.2016C31.1068 8 30.5035 8.44497 29.9365 9.11098C29.7834 9.28901 29.4648 9.65965 29.6227 10.1092C29.783 10.5655 30.3031 10.6631 30.4725 10.6948C31.3131 10.8548 31.787 11.369 31.9212 12.2675C32.1556 13.8277 32.1844 15.493 32.0119 17.5084C31.9638 18.0685 31.8686 18.5011 31.7119 18.8707C31.6755 18.957 31.5463 19.2385 31.4146 19.2386C31.3728 19.2386 31.2518 19.2222 31.0313 19.0703C30.51 18.7131 30.1286 18.2036 29.684 17.5741C28.1714 15.4364 26.9019 13.0815 25.8025 10.3732C25.3948 9.37618 24.6333 8.81803 23.6573 8.80162C22.585 8.78532 21.6127 8.77745 20.6854 8.77745C19.6722 8.77745 18.7329 8.78682 17.8157 8.80589C17.0305 8.81977 16.4874 9.05514 16.2016 9.50601C15.9154 9.95722 15.934 10.5499 16.257 11.2674C18.8427 17.0157 21.187 21.1952 23.8587 24.8197C25.7307 27.3559 27.6084 29.1114 29.7673 30.3439C32.0417 31.645 34.5906 32.2776 37.5594 32.2776C37.8959 32.2776 38.2439 32.2694 38.5947 32.253C40.3198 32.1689 40.9598 31.5445 41.0407 29.8649C41.0792 29.0065 41.1731 28.1063 41.5951 27.3386C41.8614 26.8549 42.1098 26.8549 42.1914 26.8549C42.3486 26.8549 42.5435 26.9272 42.7529 27.0628C43.1284 27.3079 43.4503 27.6362 43.7143 27.9231C43.9627 28.1955 44.2084 28.4708 44.4543 28.7462C44.9849 29.3405 45.5336 29.955 46.1067 30.5377C47.3613 31.8141 48.7434 32.3755 50.3308 32.2537H56.2558C56.2684 32.2537 56.2812 32.2532 56.2938 32.2524C56.8842 32.2135 57.3955 31.8859 57.6967 31.3539C58.0697 30.6948 58.0622 29.854 57.6765 29.1042C57.239 28.2564 56.6713 27.532 56.174 26.9355Z" fill="white"/>
</svg>
