<svg width="73" height="42" viewBox="0 0 73 42" fill="none" xmlns="http://www.w3.org/2000/svg">
<path fill-rule="evenodd" clip-rule="evenodd" d="M54.2186 9.02896C54.8147 9.6435 55.2381 10.4045 55.446 11.235C56.0012 14.3127 56.2706 17.4352 56.251 20.5625C56.2621 23.6431 55.9926 26.7183 55.446 29.75C55.2381 30.5805 54.8147 31.3415 54.2186 31.956C53.6225 32.5706 52.8748 33.0169 52.051 33.25C49.041 34.055 37.001 34.055 37.001 34.055C37.001 34.055 24.961 34.055 21.951 33.25C21.1439 33.0292 20.4075 32.6039 19.8128 32.0153C19.218 31.4268 18.7852 30.6947 18.556 29.89C18.0008 26.8123 17.7314 23.6898 17.751 20.5625C17.7357 17.4585 18.0051 14.3597 18.556 11.305C18.7639 10.4745 19.1873 9.7135 19.7834 9.09896C20.3795 8.48442 21.1272 8.03807 21.951 7.805C24.961 7 37.001 7 37.001 7C37.001 7 49.041 7 52.051 7.735C52.8748 7.96807 53.6225 8.41442 54.2186 9.02896ZM35.6776 24.7978C34.511 25.4612 33.0625 24.6186 33.0625 23.2766V17.8484C33.0625 16.5063 34.511 15.6637 35.6776 16.3272L40.4501 19.0413C41.6299 19.7122 41.6299 21.4127 40.4501 22.0837L35.6776 24.7978Z" fill="white"/>
</svg>
